<svg xmlns="http://www.w3.org/2000/svg" xmlns:xlink="http://www.w3.org/1999/xlink" width="563" height="178" viewBox="0 0 563 178">
  <defs>
    <linearGradient id="linear-gradient" y1="0.203" x2="0.779" y2="1" gradientUnits="objectBoundingBox">
      <stop offset="0" stop-color="#50b948"/>
      <stop offset="1" stop-color="#458134"/>
    </linearGradient>
    <linearGradient id="linear-gradient-2" x1="1" y1="0.5" x2="0.188" y2="1" gradientUnits="objectBoundingBox">
      <stop offset="0" stop-color="#1cb9ad"/>
      <stop offset="1" stop-color="#00544a"/>
    </linearGradient>
    <linearGradient id="linear-gradient-3" x1="0.5" y1="0.87" x2="0.5" gradientUnits="objectBoundingBox">
      <stop offset="0" stop-color="#00a4e6"/>
      <stop offset="1" stop-color="#005480"/>
    </linearGradient>
    <clipPath id="clip-path">
      <path id="Path_21" data-name="Path 21" d="M5.619,44.32c9.739,26.665,29.036,58.7,67.148,84.7.163.111.321.221.483.332,6.661-3.886,23.387-14.777,39.879-34.446-2.757-.181-5.862-.455-9.254-.876C77.487,90.761,34.3,78.826,10.69,36.873c-1.951,2.7-3.64,5.21-5.071,7.447" transform="translate(-5.619 -36.873)" fill="url(#linear-gradient)"/>
    </clipPath>
    <clipPath id="clip-path-2">
      <path id="Path_23" data-name="Path 23" d="M79.758,0C56.424.05,29.255,4.953.132,19.48l-.118.058C.007,19.853,0,20.274,0,20.8v.225C.011,27.428.848,47.5,9.867,72.2c1.431-2.237,3.12-4.748,5.071-7.447C30.233,43.582,61.546,11,109.729,10.268c-1.408-3.2-2.759-5.984-3.951-8.308A168.8,168.8,0,0,0,80.478,0Z" transform="translate(0 -0.001)" fill="url(#linear-gradient-2)"/>
    </clipPath>
    <clipPath id="clip-path-3">
      <path id="Path_25" data-name="Path 25" d="M64.189,9.425C74.5,32.834,87.767,78.1,62.582,121.063c3.393.421,6.5.7,9.254.876,18.716-22.315,37.1-55.934,40.127-103.446l.016-.232C107.432,15.634,88.417,5.449,60.238,1.117c1.192,2.323,2.543,5.108,3.951,8.308" transform="translate(-60.238 -1.117)" fill="url(#linear-gradient-3)"/>
    </clipPath>
  </defs>
  <g id="santa-rosa-oral-surgery-logo-white-highres" transform="translate(17369 7781)">
    <rect id="Rectangle_224" data-name="Rectangle 224" width="563" height="172" transform="translate(-17369 -7778)" fill="none"/>
    <g id="santa-rosa-oral-surgery-logo-highres" transform="translate(396 135.667)">
      <rect id="Rectangle_222" data-name="Rectangle 222" width="536" height="178" transform="translate(-17751 -7916.667)" fill="none"/>
      <g id="Group_731" data-name="Group 731" transform="translate(-17727.775 -7906.28)">
        <path id="Path_2803" data-name="Path 2803" d="M-266.712-49.745a48.831,48.831,0,0,0,.4-6.56h1.434a15.726,15.726,0,0,0,.348,3.639,3.166,3.166,0,0,0,1.171,1.192,9.63,9.63,0,0,0,2.489,1.128,9.948,9.948,0,0,0,3.016.5,8.041,8.041,0,0,0,3.923-.981,6.161,6.161,0,0,0,2.616-2.573,7.318,7.318,0,0,0,.823-3.407,6.373,6.373,0,0,0-.411-2.4,3.73,3.73,0,0,0-1.255-1.635,5.225,5.225,0,0,0-2.088-.875q-.78-.127-3.122-.422t-3.987-.654a8.924,8.924,0,0,1-3.227-1.582,6.635,6.635,0,0,1-1.677-2.384,7.887,7.887,0,0,1-.643-3.185,9.1,9.1,0,0,1,1.3-4.693,8.676,8.676,0,0,1,3.839-3.428A12.55,12.55,0,0,1-256.25-79.3a18,18,0,0,1,3.913.475,17.533,17.533,0,0,1,3.955,1.382,23.189,23.189,0,0,0-.422,2.478q-.127,1.15-.19,3.385h-1.434a23.618,23.618,0,0,0-.19-3.544,5.371,5.371,0,0,0-1.434-1.371,9.116,9.116,0,0,0-4.535-1.223,6.516,6.516,0,0,0-4.883,1.867,6.632,6.632,0,0,0-1.825,4.841,4.979,4.979,0,0,0,.654,2.774,4.476,4.476,0,0,0,2.341,1.571,21.472,21.472,0,0,0,3.8.749q2.637.348,4.746.749a8.126,8.126,0,0,1,2.932,1.4,6.165,6.165,0,0,1,1.561,2.13,7.278,7.278,0,0,1,.612,3.09,9.552,9.552,0,0,1-3.48,7.319A12.978,12.978,0,0,1-259.14-48.1,17.14,17.14,0,0,1-266.712-49.745Zm25.882-13.415-1.118-.3q.021-.485.021-1.329,0-.886-.021-1.413a22.493,22.493,0,0,1,4.387-2.362A9.1,9.1,0,0,1-234.63-69a8.292,8.292,0,0,1,4.05.907,5.677,5.677,0,0,1,2.447,2.595,7.8,7.8,0,0,1,.548,3.227l-.084,3.86v6.286a4.473,4.473,0,0,0,.169,1.455.874.874,0,0,0,.4.464,2.277,2.277,0,0,0,.886.169l1.371.127v1.2q-1.73-.148-3.037-.148-1.266,0-3.375.148l.105-3.712q-4.3,3.248-5.1,3.66a4.417,4.417,0,0,1-2.025.411,5.522,5.522,0,0,1-3.976-1.361,4.771,4.771,0,0,1-1.424-3.618,6.909,6.909,0,0,1,.5-2.658,5.881,5.881,0,0,1,1.192-1.909,5.012,5.012,0,0,1,1.413-1.044,22.742,22.742,0,0,1,3.976-1.223,47.516,47.516,0,0,1,5.453-.97,7.559,7.559,0,0,0-.485-3.122,4.11,4.11,0,0,0-1.709-1.835,5.628,5.628,0,0,0-2.932-.717,6.445,6.445,0,0,0-2.183.337,3.368,3.368,0,0,0-1.15.57l-.38.759Q-240.557-63.878-240.831-63.16Zm9.682,3.312a41.472,41.472,0,0,0-4.683,1.034,8.9,8.9,0,0,0-2.742,1.181,2.936,2.936,0,0,0-.844,1.076,5,5,0,0,0-.548,2.341,3.316,3.316,0,0,0,.865,2.436,3.228,3.228,0,0,0,2.4.875,5.463,5.463,0,0,0,2.795-.812,11,11,0,0,0,2.753-2.436Zm7.931,11.137v-1.2l2-.021a1.563,1.563,0,0,0,.686-.158.981.981,0,0,0,.369-.348,3.87,3.87,0,0,0,.3-1.5q0-.274.127-6.054V-60.5q0-1.687-.063-3.628a4.748,4.748,0,0,0-.2-1.477.838.838,0,0,0-.475-.348,15.536,15.536,0,0,0-2.742-.095v-1.2A22.3,22.3,0,0,0-217-68.792a1.68,1.68,0,0,1,.57-.211.281.281,0,0,1,.232.105.5.5,0,0,1,.084.316,3.1,3.1,0,0,1-.021.338q-.063.759-.127,3.206l3.923-3.354a9.529,9.529,0,0,1,3.269-.633,7.725,7.725,0,0,1,3.238.7,5.671,5.671,0,0,1,2.3,1.751A6.035,6.035,0,0,1-202.5-63.92a52,52,0,0,1,.148,5.294v3.734a30.492,30.492,0,0,0,.148,3.734,1.76,1.76,0,0,0,.327.875,1.1,1.1,0,0,0,.686.306l2.257.063v1.2q-2.067-.148-3.438-.148-1.181,0-3.923.148.3-5.21.3-6.581v-3.544a22.987,22.987,0,0,0-.253-4.345,3.834,3.834,0,0,0-1.624-2.278,5.29,5.29,0,0,0-3.059-.865,5.712,5.712,0,0,0-2.89.749,4.826,4.826,0,0,0-1.867,1.73,7.1,7.1,0,0,0-.559,3.3v2.552q.127,5.484.127,5.927a4.6,4.6,0,0,0,.253,1.54.875.875,0,0,0,.253.327,1.33,1.33,0,0,0,.527.221q.126.021,2.32.063v1.2q-2.573-.148-4.662-.148Q-219.21-48.859-223.218-48.711Zm25.523-16.537v-.886a35.495,35.495,0,0,0,3.354-1.434q0-5.02-.127-6.412a17.471,17.471,0,0,0,3.565-1.624l.506.422q-.232,1.751-.506,7.72,1.687.021,2.025.021.19,0,2.173-.042,1.1-.021,1.645-.084l.148.148-.443,1.962q-1.329-.021-2.447-.021t-3.1.021l-.127,8.585a31.728,31.728,0,0,0,.042,3.755,2.8,2.8,0,0,0,.4,1.065,2.246,2.246,0,0,0,.77.728,4.667,4.667,0,0,0,1.614.422,10.722,10.722,0,0,0,1.4-.074,7.058,7.058,0,0,0,1.361-.369l.253.823q-.991.78-1.92,1.624a7.162,7.162,0,0,1-1.5.39,11.991,11.991,0,0,1-1.6.095,5.127,5.127,0,0,1-1.782-.253,4.284,4.284,0,0,1-1.213-.707,3.618,3.618,0,0,1-.907-1.15,5.972,5.972,0,0,1-.464-2.194q.021-1.434.084-3.143.021-.337.021-.738v-8.754h-.865Q-196.387-65.354-197.695-65.249ZM-180-63.16l-1.118-.3q.021-.485.021-1.329,0-.886-.021-1.413a22.493,22.493,0,0,1,4.387-2.362A9.105,9.105,0,0,1-173.8-69a8.292,8.292,0,0,1,4.05.907A5.677,5.677,0,0,1-167.3-65.5a7.8,7.8,0,0,1,.548,3.227l-.084,3.86v6.286a4.474,4.474,0,0,0,.169,1.455.874.874,0,0,0,.4.464,2.278,2.278,0,0,0,.886.169l1.371.127v1.2q-1.73-.148-3.037-.148-1.266,0-3.375.148l.105-3.712q-4.3,3.248-5.1,3.66a4.417,4.417,0,0,1-2.025.411,5.522,5.522,0,0,1-3.976-1.361,4.771,4.771,0,0,1-1.424-3.618,6.908,6.908,0,0,1,.5-2.658,5.881,5.881,0,0,1,1.192-1.909,5.011,5.011,0,0,1,1.413-1.044,22.743,22.743,0,0,1,3.976-1.223,47.515,47.515,0,0,1,5.453-.97,7.56,7.56,0,0,0-.485-3.122,4.11,4.11,0,0,0-1.709-1.835,5.627,5.627,0,0,0-2.932-.717,6.444,6.444,0,0,0-2.183.337,3.367,3.367,0,0,0-1.15.57l-.38.759Q-179.723-63.878-180-63.16Zm9.682,3.312A41.468,41.468,0,0,0-175-58.815a8.9,8.9,0,0,0-2.742,1.181,2.937,2.937,0,0,0-.844,1.076,5,5,0,0,0-.548,2.341,3.316,3.316,0,0,0,.865,2.436,3.227,3.227,0,0,0,2.4.875,5.463,5.463,0,0,0,2.795-.812,11,11,0,0,0,2.753-2.436Zm19.089-17.486v-1.35l2.51.063,4.05.105q1.2,0,3.734-.084,3.291-.127,3.818-.127a17.51,17.51,0,0,1,5.874.717,5.721,5.721,0,0,1,2.858,2.331,6.483,6.483,0,0,1,1.012,3.512,7.327,7.327,0,0,1-.949,3.523,7.944,7.944,0,0,1-2.753,2.911,14.352,14.352,0,0,1-4.693,1.793q.527.738,2.489,3.291l5.315,7q2.278,2.932,2.658,3.269a1.285,1.285,0,0,0,.38.211,5.589,5.589,0,0,0,1.392.105v1.35q-1.6-.127-2.805-.127-1.245,0-3.059.127-1.371-1.582-4.6-6.18-1.793-2.552-3.164-4.261-2.215-2.827-4.219-5.126l.211-.633q1.1.063,1.666.063a8.348,8.348,0,0,0,5.822-1.814,6.181,6.181,0,0,0,1.983-4.788,5.258,5.258,0,0,0-1.709-4.124A7.551,7.551,0,0,0-138.57-77.1a14.179,14.179,0,0,0-4.261.654q-.084,1.139-.127,2.13-.021.3-.148,6.138v9.365q0,2.869.084,5.59a6.611,6.611,0,0,0,.285,2.384,1.415,1.415,0,0,0,.791.559,15.062,15.062,0,0,0,3.037.221v1.35q-3-.169-5.505-.169-2.025,0-6.813.169v-1.35a15.062,15.062,0,0,0,3.037-.221,1.394,1.394,0,0,0,.759-.5,5.372,5.372,0,0,0,.316-2.046q.021-.443.084-5.991v-9.766q0-2.869-.063-5.611a6.636,6.636,0,0,0-.306-2.373,1.434,1.434,0,0,0-.78-.548A15.026,15.026,0,0,0-151.226-77.335Zm29.341,18.921a10.394,10.394,0,0,1,3.006-7.71,10.477,10.477,0,0,1,7.71-2.985,9.761,9.761,0,0,1,7.214,2.784,9.734,9.734,0,0,1,2.784,7.193,11.3,11.3,0,0,1-1.434,5.632,10.208,10.208,0,0,1-4.05,4,11.71,11.71,0,0,1-5.759,1.445,9.449,9.449,0,0,1-4.145-.823,8.267,8.267,0,0,1-2.753-2.067,9.869,9.869,0,0,1-1.6-2.552A12.509,12.509,0,0,1-121.885-58.414Zm3.987-1.561a17.1,17.1,0,0,0,.865,5.273,7.68,7.68,0,0,0,2.5,3.913,5.777,5.777,0,0,0,3.554,1.234,5.153,5.153,0,0,0,4.092-1.941q1.645-1.941,1.645-5.969a15.471,15.471,0,0,0-.981-5.79,7.16,7.16,0,0,0-2.5-3.438,5.962,5.962,0,0,0-3.354-1,5.285,5.285,0,0,0-4.208,1.877Q-117.9-63.941-117.9-59.975Zm20.123,4.894h1.266a15.888,15.888,0,0,0,.127,1.941,6.964,6.964,0,0,0,.359,1.4,2.874,2.874,0,0,0,.78,1.16,4.106,4.106,0,0,0,1.15.738,4.849,4.849,0,0,0,1.266.348,16.409,16.409,0,0,0,1.951.084,5.37,5.37,0,0,0,3.533-1.139,3.828,3.828,0,0,0,1.382-3.122,2.83,2.83,0,0,0-.432-1.561,2.883,2.883,0,0,0-1.245-1.055,21.5,21.5,0,0,0-3.491-.991q-2.679-.612-3.459-.886a5.785,5.785,0,0,1-1.877-1.076,4.5,4.5,0,0,1-1.107-1.6,5.349,5.349,0,0,1-.411-2.109,5.686,5.686,0,0,1,.875-3.069A6.217,6.217,0,0,1-94.359-68.3a9.563,9.563,0,0,1,4.092-.875,15.163,15.163,0,0,1,3.08.369,12,12,0,0,1,2.848.918q-.148,2.341-.211,4.767h-1.2A12.412,12.412,0,0,0-86-65.143a3.45,3.45,0,0,0-.369-.865,3.184,3.184,0,0,0-.8-.812,5.807,5.807,0,0,0-1.466-.77,6.291,6.291,0,0,0-2.2-.338,4.1,4.1,0,0,0-2.985,1.1,3.476,3.476,0,0,0-1.128,2.573,2.876,2.876,0,0,0,.327,1.413,2.736,2.736,0,0,0,.875.96,5.739,5.739,0,0,0,1.54.664l3.5.865a22.067,22.067,0,0,1,3.66,1.16,3.78,3.78,0,0,1,1.614,1.508,4.7,4.7,0,0,1,.612,2.457,6.5,6.5,0,0,1-2.352,4.967,9.05,9.05,0,0,1-6.3,2.12,28.442,28.442,0,0,1-4.83-.548,7.647,7.647,0,0,1-1.793-.443.247.247,0,0,1-.084-.211,1.879,1.879,0,0,1,.042-.359,13.423,13.423,0,0,0,.253-1.772Q-97.818-52.34-97.776-55.082Zm20.925-8.079-1.118-.3q.021-.485.021-1.329,0-.886-.021-1.413a22.491,22.491,0,0,1,4.387-2.362A9.105,9.105,0,0,1-70.65-69a8.291,8.291,0,0,1,4.05.907A5.677,5.677,0,0,1-64.153-65.5a7.8,7.8,0,0,1,.548,3.227l-.084,3.86v6.286a4.473,4.473,0,0,0,.169,1.455.874.874,0,0,0,.4.464,2.278,2.278,0,0,0,.886.169l1.371.127v1.2q-1.73-.148-3.037-.148-1.266,0-3.375.148l.105-3.712q-4.3,3.248-5.1,3.66a4.416,4.416,0,0,1-2.025.411,5.522,5.522,0,0,1-3.976-1.361A4.771,4.771,0,0,1-79.7-53.331a6.908,6.908,0,0,1,.5-2.658A5.88,5.88,0,0,1-78.011-57.9,5.011,5.011,0,0,1-76.6-58.942a22.743,22.743,0,0,1,3.976-1.223,47.517,47.517,0,0,1,5.453-.97,7.559,7.559,0,0,0-.485-3.122,4.11,4.11,0,0,0-1.709-1.835,5.628,5.628,0,0,0-2.932-.717,6.444,6.444,0,0,0-2.183.337,3.367,3.367,0,0,0-1.15.57l-.38.759Q-76.577-63.878-76.851-63.16Zm9.682,3.312a41.475,41.475,0,0,0-4.683,1.034,8.9,8.9,0,0,0-2.742,1.181,2.937,2.937,0,0,0-.844,1.076,5,5,0,0,0-.548,2.341,3.316,3.316,0,0,0,.865,2.436,3.227,3.227,0,0,0,2.4.875,5.463,5.463,0,0,0,2.795-.812,11,11,0,0,0,2.753-2.436Z" transform="translate(448.092 115.846)" fill="#f8f6ef" opacity="0.998"/>
        <path id="Path_2804" data-name="Path 2804" d="M-322.52-40.392a15.549,15.549,0,0,1,.851-5.231,11.21,11.21,0,0,1,2.821-4.317,13.32,13.32,0,0,1,4.46-2.893,15.52,15.52,0,0,1,5.7-.976,16.422,16.422,0,0,1,5.374.833,11.628,11.628,0,0,1,3.968,2.2,11.238,11.238,0,0,1,2.445,3,11.419,11.419,0,0,1,1.084,2.866,14.818,14.818,0,0,1,.4,3.529,13.554,13.554,0,0,1-4.057,10.049,13.96,13.96,0,0,1-10.237,4.013,14.827,14.827,0,0,1-5.249-.914,10.685,10.685,0,0,1-4.12-2.714,11.957,11.957,0,0,1-2.562-4.371A15.649,15.649,0,0,1-322.52-40.392Zm3.726-1.487a18.148,18.148,0,0,0,.34,3.457,16.23,16.23,0,0,0,.86,3.027,11.208,11.208,0,0,0,2.248,3.61,8.805,8.805,0,0,0,3.1,2.15,10.046,10.046,0,0,0,3.789.69,8.9,8.9,0,0,0,5.016-1.406,8.44,8.44,0,0,0,3.18-3.959,15.4,15.4,0,0,0,1.048-5.885,17.472,17.472,0,0,0-.752-5.249A10.983,10.983,0,0,0-301.2-48.1a9.138,9.138,0,0,0-1.836-2.078,9.08,9.08,0,0,0-2.768-1.5,10.82,10.82,0,0,0-3.672-.609,9.63,9.63,0,0,0-5,1.272,7.929,7.929,0,0,0-3.233,3.681A13.159,13.159,0,0,0-318.794-41.878Zm27.831-10.264v-1.146l2.132.054,3.439.09q1.021,0,3.171-.072,2.795-.107,3.242-.107a14.87,14.87,0,0,1,4.989.609,4.859,4.859,0,0,1,2.427,1.979,5.5,5.5,0,0,1,.86,2.983,6.221,6.221,0,0,1-.806,2.992,6.745,6.745,0,0,1-2.338,2.472,12.188,12.188,0,0,1-3.986,1.523q.448.627,2.114,2.794l4.514,5.947q1.935,2.49,2.257,2.777a1.091,1.091,0,0,0,.322.179,4.746,4.746,0,0,0,1.182.09v1.146q-1.361-.107-2.382-.107-1.057,0-2.6.107-1.164-1.343-3.905-5.249-1.523-2.168-2.687-3.618-1.881-2.4-3.583-4.353l.179-.537q.931.054,1.415.054a7.089,7.089,0,0,0,4.944-1.541,5.249,5.249,0,0,0,1.684-4.066,4.465,4.465,0,0,0-1.451-3.5,6.412,6.412,0,0,0-4.389-1.3,12.041,12.041,0,0,0-3.618.555q-.072.967-.107,1.809-.018.251-.125,5.213v7.954q0,2.436.072,4.747a5.615,5.615,0,0,0,.242,2.024,1.2,1.2,0,0,0,.672.475,12.794,12.794,0,0,0,2.58.188v1.146q-2.544-.143-4.675-.143-1.72,0-5.786.143v-1.146a12.793,12.793,0,0,0,2.58-.188,1.184,1.184,0,0,0,.645-.421,4.563,4.563,0,0,0,.269-1.738q.018-.376.072-5.087v-8.294q0-2.436-.054-4.765a5.636,5.636,0,0,0-.26-2.015,1.218,1.218,0,0,0-.663-.466A12.762,12.762,0,0,0-290.963-52.143Zm27.114,24.308v-1.218a9.471,9.471,0,0,0,1.764-.116,1.554,1.554,0,0,0,.645-.376,5.766,5.766,0,0,0,.851-1.442q.323-.663,2.329-5.034l4.478-10.1q.735-1.666,3.135-7.416h1.164l7.649,17.967q1.863,4.371,2.472,5.481a1.855,1.855,0,0,0,.743.824,5.283,5.283,0,0,0,1.818.215v1.218q-2.795-.179-3.905-.179l-5.768.179v-1.218a19.819,19.819,0,0,0,2.436-.125,1.08,1.08,0,0,0,.582-.26.608.608,0,0,0,.152-.421,2.912,2.912,0,0,0-.251-1.021l-2.2-5.481h-10.372l-1.953,4.6a5.4,5.4,0,0,0-.519,1.809.6.6,0,0,0,.143.412,1.066,1.066,0,0,0,.609.322,13.41,13.41,0,0,0,2.329.161v1.218Q-258.546-28-260.051-28-261.789-28-263.849-27.834Zm8.33-10.049h9.046l-4.478-10.8Zm24.642,10.049v-.931a5.76,5.76,0,0,0,1.415-.824.857.857,0,0,0,.251-.412,9.872,9.872,0,0,0,.215-2.15q.072-2.454.072-2.92v-9.637q0-2.436-.054-4.765a5.637,5.637,0,0,0-.26-2.015,1.218,1.218,0,0,0-.663-.466,12.763,12.763,0,0,0-2.589-.188v-1.146q4.371.143,5.41.143,1.146,0,5.141-.143v1.146a12.762,12.762,0,0,0-2.589.188,1.18,1.18,0,0,0-.636.421,4.563,4.563,0,0,0-.269,1.738q-.018.358-.072,5.087v12.038q0,1.881.072,3.063,2.042.125,4.048.125a26.46,26.46,0,0,0,7.076-.645,8.3,8.3,0,0,0,.412-1.236l.717-2.974h1.2q-.394,2.669-.77,6.27a11.385,11.385,0,0,1-1.164.179q-.931.054-2.866.054l-10.6-.143Q-229.1-27.978-230.877-27.834Zm34.7-.878a41.491,41.491,0,0,0,.34-5.571h1.218a13.37,13.37,0,0,0,.3,3.09,2.69,2.69,0,0,0,.994,1.012,8.18,8.18,0,0,0,2.114.958,8.448,8.448,0,0,0,2.562.421,6.829,6.829,0,0,0,3.332-.833A5.233,5.233,0,0,0-183.1-31.82a6.214,6.214,0,0,0,.7-2.893,5.413,5.413,0,0,0-.349-2.042,3.167,3.167,0,0,0-1.066-1.388,4.436,4.436,0,0,0-1.773-.743q-.663-.107-2.651-.358t-3.386-.555a7.579,7.579,0,0,1-2.741-1.343,5.635,5.635,0,0,1-1.424-2.024,6.7,6.7,0,0,1-.546-2.7,7.731,7.731,0,0,1,1.1-3.986,7.368,7.368,0,0,1,3.26-2.911,10.658,10.658,0,0,1,4.684-1.039,15.288,15.288,0,0,1,3.323.4,14.892,14.892,0,0,1,3.359,1.173,19.7,19.7,0,0,0-.358,2.1q-.107.976-.161,2.875h-1.218a20.051,20.051,0,0,0-.161-3.009,4.56,4.56,0,0,0-1.218-1.164,7.742,7.742,0,0,0-3.851-1.039,5.534,5.534,0,0,0-4.147,1.585,5.633,5.633,0,0,0-1.549,4.111,4.228,4.228,0,0,0,.555,2.356,3.8,3.8,0,0,0,1.988,1.335,18.232,18.232,0,0,0,3.224.636q2.239.3,4.03.636a6.9,6.9,0,0,1,2.49,1.191,5.235,5.235,0,0,1,1.326,1.809,6.181,6.181,0,0,1,.519,2.624,8.112,8.112,0,0,1-2.956,6.216,11.021,11.021,0,0,1-7.649,2.651A14.556,14.556,0,0,1-196.173-28.712Zm21.418-23.431v-1.146q2.92.143,5.428.143,2.544,0,5.052-.143v1.146a12.793,12.793,0,0,0-2.579.188,1.088,1.088,0,0,0-.627.421,4.222,4.222,0,0,0-.287,1.738q-.018.358-.072,5.087v6.628A16.5,16.5,0,0,0-167.348-33a4.678,4.678,0,0,0,1.567,2.033,6.518,6.518,0,0,0,2.221.976,12.265,12.265,0,0,0,3.117.367,11.825,11.825,0,0,0,3.565-.493,6.3,6.3,0,0,0,2.338-1.2,4.674,4.674,0,0,0,1.164-1.585,8.5,8.5,0,0,0,.555-2.409,36.265,36.265,0,0,0,.17-3.878v-5.517q0-2.436-.072-4.765a5.523,5.523,0,0,0-.242-2.015,1.22,1.22,0,0,0-.672-.466,12.794,12.794,0,0,0-2.58-.188v-1.146q2.956.143,4.317.143,1.236,0,4.46-.143v1.146a12.761,12.761,0,0,0-2.588.188,1.179,1.179,0,0,0-.636.421,4.562,4.562,0,0,0-.269,1.738q-.018.358-.072,5.087v6a21.07,21.07,0,0,1-.618,6.18,6.983,6.983,0,0,1-2.266,3.1,8.843,8.843,0,0,1-3.18,1.558,15.656,15.656,0,0,1-4.308.555,15.617,15.617,0,0,1-4.783-.654,7.532,7.532,0,0,1-3.081-1.72,5.986,5.986,0,0,1-1.451-2.176,16.936,16.936,0,0,1-.5-4.926v-7.918q0-2.436-.054-4.765a5.633,5.633,0,0,0-.26-2.015,1.217,1.217,0,0,0-.663-.466A12.761,12.761,0,0,0-174.755-52.143Zm31.593,0v-1.146l2.132.054,3.439.09q1.021,0,3.171-.072,2.795-.107,3.242-.107a14.87,14.87,0,0,1,4.989.609,4.858,4.858,0,0,1,2.427,1.979,5.505,5.505,0,0,1,.86,2.983,6.221,6.221,0,0,1-.806,2.992,6.746,6.746,0,0,1-2.338,2.472,12.188,12.188,0,0,1-3.986,1.523q.448.627,2.114,2.794l4.514,5.947q1.935,2.49,2.257,2.777a1.093,1.093,0,0,0,.322.179,4.746,4.746,0,0,0,1.182.09v1.146q-1.361-.107-2.382-.107-1.057,0-2.6.107-1.164-1.343-3.905-5.249-1.523-2.168-2.687-3.618-1.881-2.4-3.583-4.353l.179-.537q.932.054,1.415.054a7.089,7.089,0,0,0,4.944-1.541,5.249,5.249,0,0,0,1.684-4.066,4.465,4.465,0,0,0-1.451-3.5,6.412,6.412,0,0,0-4.389-1.3,12.041,12.041,0,0,0-3.619.555q-.072.967-.107,1.809-.018.251-.125,5.213v7.954q0,2.436.072,4.747a5.614,5.614,0,0,0,.242,2.024,1.2,1.2,0,0,0,.672.475,12.793,12.793,0,0,0,2.58.188v1.146q-2.544-.143-4.675-.143-1.72,0-5.786.143v-1.146a12.793,12.793,0,0,0,2.579-.188,1.184,1.184,0,0,0,.645-.421,4.565,4.565,0,0,0,.269-1.738q.018-.376.072-5.087v-8.294q0-2.436-.054-4.765a5.634,5.634,0,0,0-.26-2.015,1.217,1.217,0,0,0-.663-.466A12.762,12.762,0,0,0-143.163-52.143Zm52,22.911a31.646,31.646,0,0,1-4.46,1.326,30.675,30.675,0,0,1-5.8.591,16.169,16.169,0,0,1-7.362-1.621,11.891,11.891,0,0,1-4.98-4.541,13.13,13.13,0,0,1-1.756-6.9,12.814,12.814,0,0,1,1.263-5.938,12.8,12.8,0,0,1,3.153-4.022,14.155,14.155,0,0,1,3.771-2.329,19.386,19.386,0,0,1,7.13-1.146,22.377,22.377,0,0,1,4.183.457q2.194.439,4.953,1.209a14.79,14.79,0,0,0-.412,1.791q-.143.878-.376,3.6h-1.093l-.09-2.042q-.018-.466-.036-.752a2.112,2.112,0,0,0-.233-.734,4.2,4.2,0,0,0-1.541-1.164,19.137,19.137,0,0,0-3.018-.931,15.005,15.005,0,0,0-2.839-.233,11.5,11.5,0,0,0-5.893,1.451A9.275,9.275,0,0,0-110.379-47a13.635,13.635,0,0,0-1.281,5.911,13.345,13.345,0,0,0,1.5,6.35,10.726,10.726,0,0,0,4.013,4.317,11.266,11.266,0,0,0,5.867,1.5,15.1,15.1,0,0,0,3.054-.3,9.489,9.489,0,0,0,2.5-.842,11.571,11.571,0,0,0,.161-2.293v-1.988a5.537,5.537,0,0,0-.161-1.845q-.161-.269-.869-.4a27.387,27.387,0,0,0-3.251-.206V-37.9l5.589.125q1.63,0,3.332-.125l.108.86-1.344.788a31.853,31.853,0,0,0-.215,3.529A30.909,30.909,0,0,0-91.167-29.232Zm6.55,1.4v-1.129a7.351,7.351,0,0,0,2.472-.287.667.667,0,0,0,.358-.34,6.327,6.327,0,0,0,.251-1.881q.107-2.365.108-4.084v-9.154q0-2.436-.054-4.765a5.635,5.635,0,0,0-.26-2.015,1.218,1.218,0,0,0-.663-.466,12.76,12.76,0,0,0-2.588-.188v-1.146l5.105.107,5.41-.09q3.887-.054,5.643-.054a27.035,27.035,0,0,1,3.35.2,14.057,14.057,0,0,0-.394,1.773q-.036.161-.322,3.726H-67.33a19.2,19.2,0,0,0-.233-3.332,8.129,8.129,0,0,0-2.168-.555,32.317,32.317,0,0,0-4.013-.251q-.43,0-1.917.072t-2.132.125q-.072,1.988-.107,3.726l-.072,6.055q2.1.107,3.851.107a28.568,28.568,0,0,0,3.636-.2,1.087,1.087,0,0,0,.734-.287,4.274,4.274,0,0,0,.287-1.469l.107-1.254h1.075v.34l-.09,3.726.09,4.174h-1.254l-.054-1.218a4.091,4.091,0,0,0-.242-1.648,1.17,1.17,0,0,0-.779-.448,23.3,23.3,0,0,0-3.959-.215q-1.2,0-3.4.09-.09,1.791-.09,5.32,0,3.314.09,5.034,2.58.2,5.786.2a25.19,25.19,0,0,0,3.242-.143,7.587,7.587,0,0,0,1.791-.484,11.158,11.158,0,0,0,.43-1.5q.394-1.594.519-2.4h1.182a48.632,48.632,0,0,0-.466,6,25.562,25.562,0,0,1-3.744.233l-10.694-.143Q-80.156-27.978-84.617-27.834Zm24.732-24.308v-1.146l2.132.054,3.439.09q1.021,0,3.171-.072,2.795-.107,3.242-.107a14.87,14.87,0,0,1,4.989.609,4.859,4.859,0,0,1,2.427,1.979,5.505,5.505,0,0,1,.86,2.983,6.222,6.222,0,0,1-.806,2.992,6.745,6.745,0,0,1-2.338,2.472,12.187,12.187,0,0,1-3.986,1.523q.448.627,2.114,2.794l4.514,5.947q1.935,2.49,2.257,2.777a1.091,1.091,0,0,0,.322.179,4.747,4.747,0,0,0,1.182.09v1.146q-1.361-.107-2.382-.107-1.057,0-2.6.107-1.164-1.343-3.905-5.249-1.523-2.168-2.687-3.618-1.881-2.4-3.583-4.353l.179-.537q.932.054,1.415.054a7.089,7.089,0,0,0,4.944-1.541A5.249,5.249,0,0,0-43.3-47.145a4.465,4.465,0,0,0-1.451-3.5,6.412,6.412,0,0,0-4.389-1.3,12.041,12.041,0,0,0-3.618.555q-.072.967-.107,1.809-.018.251-.125,5.213v7.954q0,2.436.072,4.747a5.615,5.615,0,0,0,.242,2.024,1.2,1.2,0,0,0,.672.475,12.794,12.794,0,0,0,2.58.188v1.146q-2.544-.143-4.675-.143-1.72,0-5.786.143v-1.146a12.793,12.793,0,0,0,2.58-.188,1.183,1.183,0,0,0,.645-.421,4.562,4.562,0,0,0,.269-1.738q.018-.376.072-5.087v-8.294q0-2.436-.054-4.765a5.634,5.634,0,0,0-.26-2.015,1.217,1.217,0,0,0-.663-.466A12.762,12.762,0,0,0-59.885-52.143Zm25.556.43v-1.093l4.317-.842a3.41,3.41,0,0,1,.985.475A10.993,10.993,0,0,1-27.9-51.8a45.383,45.383,0,0,1,2.938,4.64q1.666,2.938,3.547,6.717,1.9-2.92,3.887-6.341l3.816-6.5h2.741v.484q-.985,1.093-3.619,4.747-1.523,2.114-3.959,6.144a26.005,26.005,0,0,0-1.72,3.054,3.236,3.236,0,0,0-.2,1.066v1.379q0,2.436.054,4.747a5.729,5.729,0,0,0,.26,2.024,1.2,1.2,0,0,0,.663.475,12.763,12.763,0,0,0,2.589.188v1.146q-2.92-.143-5.052-.143-2.042,0-5.392.143v-1.146a12.792,12.792,0,0,0,2.579-.188,1.088,1.088,0,0,0,.627-.421,4.223,4.223,0,0,0,.287-1.738q.018-.376.072-5.087v-2.1q-.376-.806-.734-1.451-.251-.448-1.827-3.081l-1.182-1.935q-1.4-2.293-2.078-3.26a18.117,18.117,0,0,0-2.168-2.669,2.715,2.715,0,0,0-.976-.627A5.153,5.153,0,0,0-34.329-51.713Z" transform="translate(501.343 143.535)" fill="#f8f6ef"/>
        <g id="santa-rosa-logomark" transform="translate(0 0)">
          <g id="Group_39" data-name="Group 39" transform="translate(9.867 64.748)">
            <g id="Group_27" data-name="Group 27" clip-path="url(#clip-path)">
              <rect id="Rectangle_38" data-name="Rectangle 38" width="107.51" height="92.48" transform="translate(0 -0.001)" fill="url(#linear-gradient)"/>
            </g>
          </g>
          <g id="Group_40" data-name="Group 40" transform="translate(0 0)">
            <g id="Group_31" data-name="Group 31" clip-path="url(#clip-path-2)">
              <rect id="Rectangle_40" data-name="Rectangle 40" width="109.729" height="72.195" transform="translate(0 -0.001)" fill="url(#linear-gradient-2)"/>
            </g>
          </g>
          <g id="Group_41" data-name="Group 41" transform="translate(105.778 1.96)">
            <g id="Group_35" data-name="Group 35" clip-path="url(#clip-path-3)">
              <rect id="Rectangle_42" data-name="Rectangle 42" width="51.741" height="120.822" transform="translate(0 -0.001)" fill="url(#linear-gradient-3)"/>
            </g>
          </g>
        </g>
      </g>
    </g>
  </g>
</svg>
