<svg height="100" viewBox="0 0 300 100" width="300" xmlns="http://www.w3.org/2000/svg" xmlns:xlink="http://www.w3.org/1999/xlink"><linearGradient id="a" gradientUnits="objectBoundingBox" x2=".779" y1=".203" y2="1"><stop offset="0" stop-color="#50b948"/><stop offset="1" stop-color="#458134"/></linearGradient><linearGradient id="b" gradientUnits="objectBoundingBox" x1="1" x2=".188" y1=".5" y2="1"><stop offset="0" stop-color="#1cb9ad"/><stop offset="1" stop-color="#00544a"/></linearGradient><linearGradient id="c" gradientUnits="objectBoundingBox" x1=".5" x2=".5" y1=".87"><stop offset="0" stop-color="#00a4e6"/><stop offset="1" stop-color="#005480"/></linearGradient><clipPath id="d"><path d="m5.619 41.041c5.451 14.925 16.251 32.854 37.581 47.408l.27.186a88.558 88.558 0 0 0 22.32-19.279c-1.543-.1-3.281-.255-5.18-.49-14.769-1.83-38.943-8.51-52.155-31.991-1.092 1.511-2.037 2.916-2.838 4.168" transform="translate(-5.619 -36.873)"/></clipPath><clipPath id="e"><path d="m44.641 0a99.481 99.481 0 0 0 -44.567 10.9l-.066.032c0 .176-.008.412-.008.707v.126a87.255 87.255 0 0 0 5.523 28.64c.8-1.252 1.747-2.658 2.838-4.168 8.561-11.844 26.087-30.082 53.055-30.489-.788-1.791-1.544-3.348-2.216-4.648a94.478 94.478 0 0 0 -14.156-1.1z" transform="translate(0 -.001)"/></clipPath><clipPath id="f"><path d="m62.449 5.767c5.768 13.1 13.2 38.438-.9 62.484 1.9.236 3.637.389 5.18.49 10.471-12.49 20.771-31.306 22.46-57.899l.009-.13a86.553 86.553 0 0 0 -28.959-9.6c.667 1.3 1.423 2.859 2.211 4.65" transform="translate(-60.238 -1.117)"/></clipPath><path d="m0 0h300v100h-300z" fill="none"/><path d="m-266.8-62.757a27.325 27.325 0 0 0 .224-3.672h.8a8.8 8.8 0 0 0 .195 2.037 1.772 1.772 0 0 0 .655.667 5.39 5.39 0 0 0 1.393.632 5.568 5.568 0 0 0 1.688.277 4.5 4.5 0 0 0 2.2-.549 3.448 3.448 0 0 0 1.464-1.44 4.1 4.1 0 0 0 .46-1.907 3.567 3.567 0 0 0 -.23-1.346 2.088 2.088 0 0 0 -.7-.915 2.924 2.924 0 0 0 -1.169-.49q-.437-.071-1.747-.236t-2.231-.366a5 5 0 0 1 -1.806-.885 3.713 3.713 0 0 1 -.939-1.334 4.414 4.414 0 0 1 -.36-1.783 5.1 5.1 0 0 1 .726-2.627 4.856 4.856 0 0 1 2.149-1.918 7.024 7.024 0 0 1 3.087-.685 10.076 10.076 0 0 1 2.19.266 9.813 9.813 0 0 1 2.214.773 12.979 12.979 0 0 0 -.236 1.387q-.071.643-.106 1.895h-.8a13.218 13.218 0 0 0 -.106-1.983 3.006 3.006 0 0 0 -.8-.767 5.1 5.1 0 0 0 -2.538-.685 3.647 3.647 0 0 0 -2.733 1.045 3.712 3.712 0 0 0 -1.021 2.709 2.787 2.787 0 0 0 .366 1.552 2.505 2.505 0 0 0 1.31.88 12.018 12.018 0 0 0 2.125.419q1.476.195 2.656.419a4.548 4.548 0 0 1 1.641.785 3.45 3.45 0 0 1 .874 1.192 4.073 4.073 0 0 1 .342 1.73 5.346 5.346 0 0 1 -1.948 4.1 7.264 7.264 0 0 1 -5.041 1.747 9.593 9.593 0 0 1 -4.248-.924zm14.486-7.509-.626-.165q.012-.272.012-.744 0-.5-.012-.791a12.59 12.59 0 0 1 2.456-1.322 5.1 5.1 0 0 1 1.641-.248 4.641 4.641 0 0 1 2.267.508 3.177 3.177 0 0 1 1.369 1.452 4.365 4.365 0 0 1 .307 1.806l-.047 2.16v3.518a2.5 2.5 0 0 0 .094.815.489.489 0 0 0 .224.26 1.275 1.275 0 0 0 .5.094l.767.071v.673q-.968-.083-1.7-.083-.708 0-1.889.083l.059-2.078q-2.408 1.818-2.857 2.048a2.472 2.472 0 0 1 -1.133.23 3.091 3.091 0 0 1 -2.225-.761 2.67 2.67 0 0 1 -.8-2.025 3.867 3.867 0 0 1 .277-1.488 3.292 3.292 0 0 1 .667-1.068 2.805 2.805 0 0 1 .791-.584 12.729 12.729 0 0 1 2.225-.685 26.594 26.594 0 0 1 3.052-.543 4.231 4.231 0 0 0 -.272-1.747 2.3 2.3 0 0 0 -.956-1.027 3.15 3.15 0 0 0 -1.641-.4 3.607 3.607 0 0 0 -1.222.189 1.885 1.885 0 0 0 -.643.319l-.212.425q-.316.707-.469 1.109zm5.419 1.854a23.212 23.212 0 0 0 -2.621.578 4.982 4.982 0 0 0 -1.535.661 1.643 1.643 0 0 0 -.472.6 2.8 2.8 0 0 0 -.307 1.31 1.856 1.856 0 0 0 .484 1.364 1.806 1.806 0 0 0 1.346.49 3.058 3.058 0 0 0 1.564-.455 6.159 6.159 0 0 0 1.541-1.364zm4.439 6.234v-.673l1.122-.012a.875.875 0 0 0 .384-.089.549.549 0 0 0 .207-.195 2.166 2.166 0 0 0 .165-.838q0-.153.071-3.388v-1.4q0-.944-.035-2.031a2.657 2.657 0 0 0 -.112-.826.469.469 0 0 0 -.266-.195 8.7 8.7 0 0 0 -1.535-.053v-.673a12.481 12.481 0 0 0 3.483-.862.94.94 0 0 1 .319-.118.157.157 0 0 1 .13.059.28.28 0 0 1 .047.177 1.738 1.738 0 0 1 -.012.189q-.035.425-.071 1.795l2.2-1.877a5.333 5.333 0 0 1 1.83-.354 4.324 4.324 0 0 1 1.812.39 3.174 3.174 0 0 1 1.287.98 3.378 3.378 0 0 1 .573 1.488 29.109 29.109 0 0 1 .083 2.963v2.09a17.066 17.066 0 0 0 .083 2.09.985.985 0 0 0 .183.49.613.613 0 0 0 .384.171l1.263.035v.673q-1.157-.083-1.924-.083-.661 0-2.2.083.165-2.916.165-3.683v-1.983a12.865 12.865 0 0 0 -.142-2.432 2.146 2.146 0 0 0 -.909-1.275 2.961 2.961 0 0 0 -1.712-.484 3.2 3.2 0 0 0 -1.617.419 2.7 2.7 0 0 0 -1.045.968 3.971 3.971 0 0 0 -.313 1.848v1.429q.071 3.07.071 3.317a2.573 2.573 0 0 0 .142.862.49.49 0 0 0 .142.183.744.744 0 0 0 .3.124q.071.012 1.3.035v.673q-1.44-.083-2.609-.083-.997-.007-3.24.076zm14.285-9.256v-.5a19.866 19.866 0 0 0 1.877-.8q0-2.81-.071-3.589a9.778 9.778 0 0 0 2-.909l.283.236q-.13.98-.283 4.321.944.012 1.133.012.106 0 1.216-.024.614-.012.921-.047l.083.083-.248 1.1q-.744-.012-1.37-.012t-1.735.012l-.071 4.805a17.759 17.759 0 0 0 .024 2.1 1.568 1.568 0 0 0 .224.6 1.257 1.257 0 0 0 .431.407 2.612 2.612 0 0 0 .9.236 6 6 0 0 0 .785-.041 3.95 3.95 0 0 0 .761-.207l.142.46q-.555.437-1.074.909a4.009 4.009 0 0 1 -.838.218 6.712 6.712 0 0 1 -.9.053 2.869 2.869 0 0 1 -1-.142 2.4 2.4 0 0 1 -.679-.4 2.025 2.025 0 0 1 -.508-.643 3.342 3.342 0 0 1 -.26-1.228q.012-.8.047-1.759.012-.189.012-.413v-4.9h-.484q-.582.003-1.314.062zm9.905 1.169-.626-.165q.012-.272.012-.744 0-.5-.012-.791a12.59 12.59 0 0 1 2.456-1.322 5.1 5.1 0 0 1 1.641-.248 4.641 4.641 0 0 1 2.267.508 3.177 3.177 0 0 1 1.37 1.452 4.365 4.365 0 0 1 .307 1.806l-.047 2.16v3.518a2.5 2.5 0 0 0 .094.815.489.489 0 0 0 .224.26 1.275 1.275 0 0 0 .5.094l.767.071v.673q-.968-.083-1.7-.083-.708 0-1.889.083l.059-2.078q-2.408 1.818-2.857 2.048a2.472 2.472 0 0 1 -1.133.23 3.091 3.091 0 0 1 -2.225-.761 2.67 2.67 0 0 1 -.8-2.025 3.867 3.867 0 0 1 .277-1.488 3.292 3.292 0 0 1 .667-1.068 2.8 2.8 0 0 1 .791-.584 12.729 12.729 0 0 1 2.225-.685 26.594 26.594 0 0 1 3.052-.543 4.231 4.231 0 0 0 -.272-1.747 2.3 2.3 0 0 0 -.956-1.027 3.15 3.15 0 0 0 -1.641-.4 3.607 3.607 0 0 0 -1.222.189 1.885 1.885 0 0 0 -.643.319l-.212.425q-.316.706-.47 1.108zm5.419 1.854a23.211 23.211 0 0 0 -2.621.578 4.982 4.982 0 0 0 -1.535.661 1.644 1.644 0 0 0 -.472.6 2.8 2.8 0 0 0 -.307 1.31 1.856 1.856 0 0 0 .484 1.364 1.806 1.806 0 0 0 1.346.49 3.058 3.058 0 0 0 1.564-.455 6.159 6.159 0 0 0 1.541-1.364zm10.684-9.787v-.756l1.4.035 2.267.059q.673 0 2.09-.047 1.842-.071 2.137-.071a9.8 9.8 0 0 1 3.288.4 3.2 3.2 0 0 1 1.6 1.3 3.628 3.628 0 0 1 .567 1.966 4.1 4.1 0 0 1 -.531 1.972 4.446 4.446 0 0 1 -1.541 1.629 8.033 8.033 0 0 1 -2.627 1q.3.413 1.393 1.842l2.975 3.92q1.275 1.641 1.488 1.83a.719.719 0 0 0 .213.118 3.128 3.128 0 0 0 .779.059v.756q-.9-.071-1.57-.071-.7 0-1.712.071-.767-.885-2.574-3.459-1-1.429-1.771-2.385-1.24-1.582-2.361-2.869l.118-.354q.614.035.933.035a4.672 4.672 0 0 0 3.258-1.015 3.459 3.459 0 0 0 1.11-2.68 2.943 2.943 0 0 0 -.956-2.308 4.226 4.226 0 0 0 -2.892-.856 7.936 7.936 0 0 0 -2.385.366q-.047.638-.071 1.192-.012.165-.083 3.436v5.242q0 1.606.047 3.129a3.7 3.7 0 0 0 .159 1.334.792.792 0 0 0 .443.313 8.431 8.431 0 0 0 1.7.124v.756q-1.676-.094-3.081-.094-1.133 0-3.813.094v-.756a8.431 8.431 0 0 0 1.7-.124.78.78 0 0 0 .425-.277 3.007 3.007 0 0 0 .177-1.145q.012-.248.047-3.353v-5.46q0-1.606-.035-3.14a3.714 3.714 0 0 0 -.171-1.328.8.8 0 0 0 -.437-.307 8.41 8.41 0 0 0 -1.698-.125zm16.422 10.59a5.817 5.817 0 0 1 1.682-4.315 5.864 5.864 0 0 1 4.315-1.671 5.463 5.463 0 0 1 4.038 1.558 5.448 5.448 0 0 1 1.558 4.026 6.323 6.323 0 0 1 -.8 3.152 5.714 5.714 0 0 1 -2.267 2.237 6.554 6.554 0 0 1 -3.223.809 5.288 5.288 0 0 1 -2.32-.46 4.627 4.627 0 0 1 -1.542-1.158 5.524 5.524 0 0 1 -.9-1.429 7 7 0 0 1 -.536-2.75zm2.231-.874a9.571 9.571 0 0 0 .484 2.951 4.3 4.3 0 0 0 1.4 2.19 3.233 3.233 0 0 0 1.989.691 2.884 2.884 0 0 0 2.29-1.086 5.085 5.085 0 0 0 .921-3.341 8.659 8.659 0 0 0 -.549-3.241 4.007 4.007 0 0 0 -1.4-1.924 3.337 3.337 0 0 0 -1.877-.561 2.958 2.958 0 0 0 -2.355 1.051 4.94 4.94 0 0 0 -.893 3.269zm11.263 2.739h.708a8.892 8.892 0 0 0 .071 1.086 3.9 3.9 0 0 0 .2.785 1.609 1.609 0 0 0 .437.649 2.3 2.3 0 0 0 .643.413 2.714 2.714 0 0 0 .708.195 9.184 9.184 0 0 0 1.092.047 3.006 3.006 0 0 0 1.978-.638 2.143 2.143 0 0 0 .773-1.747 1.584 1.584 0 0 0 -.242-.874 1.613 1.613 0 0 0 -.7-.59 12.031 12.031 0 0 0 -1.954-.555q-1.5-.342-1.936-.5a3.238 3.238 0 0 1 -1.051-.6 2.521 2.521 0 0 1 -.62-.9 2.994 2.994 0 0 1 -.23-1.181 3.182 3.182 0 0 1 .49-1.718 3.48 3.48 0 0 1 1.541-1.275 5.352 5.352 0 0 1 2.29-.49 8.487 8.487 0 0 1 1.724.207 6.714 6.714 0 0 1 1.594.514q-.083 1.31-.118 2.668h-.673a6.948 6.948 0 0 0 -.136-1.133 1.93 1.93 0 0 0 -.207-.484 1.782 1.782 0 0 0 -.449-.455 3.25 3.25 0 0 0 -.821-.431 3.521 3.521 0 0 0 -1.234-.189 2.3 2.3 0 0 0 -1.671.614 1.945 1.945 0 0 0 -.632 1.44 1.61 1.61 0 0 0 .183.791 1.531 1.531 0 0 0 .49.537 3.212 3.212 0 0 0 .862.372l1.96.484a12.351 12.351 0 0 1 2.048.649 2.116 2.116 0 0 1 .9.844 2.632 2.632 0 0 1 .342 1.375 3.636 3.636 0 0 1 -1.316 2.78 5.065 5.065 0 0 1 -3.524 1.186 15.919 15.919 0 0 1 -2.7-.307 4.28 4.28 0 0 1 -1-.248.138.138 0 0 1 -.047-.118 1.051 1.051 0 0 1 .024-.2 7.514 7.514 0 0 0 .142-.992q.042-.477.066-2.012zm11.712-4.522-.626-.165q.012-.272.012-.744 0-.5-.012-.791a12.588 12.588 0 0 1 2.456-1.322 5.1 5.1 0 0 1 1.641-.248 4.641 4.641 0 0 1 2.267.508 3.177 3.177 0 0 1 1.369 1.452 4.364 4.364 0 0 1 .307 1.806l-.047 2.16v3.518a2.5 2.5 0 0 0 .094.815.489.489 0 0 0 .224.26 1.275 1.275 0 0 0 .5.094l.767.071v.673q-.968-.083-1.7-.083-.708 0-1.889.083l.059-2.078q-2.408 1.818-2.857 2.048a2.472 2.472 0 0 1 -1.133.23 3.091 3.091 0 0 1 -2.225-.761 2.67 2.67 0 0 1 -.8-2.025 3.867 3.867 0 0 1 .277-1.488 3.291 3.291 0 0 1 .667-1.068 2.8 2.8 0 0 1 .791-.584 12.729 12.729 0 0 1 2.225-.685 26.594 26.594 0 0 1 3.052-.543 4.231 4.231 0 0 0 -.272-1.747 2.3 2.3 0 0 0 -.956-1.027 3.15 3.15 0 0 0 -1.641-.4 3.607 3.607 0 0 0 -1.222.189 1.885 1.885 0 0 0 -.643.319l-.212.425q-.315.706-.468 1.108zm5.419 1.854a23.214 23.214 0 0 0 -2.621.578 4.982 4.982 0 0 0 -1.535.661 1.644 1.644 0 0 0 -.472.6 2.8 2.8 0 0 0 -.307 1.31 1.856 1.856 0 0 0 .484 1.364 1.806 1.806 0 0 0 1.346.49 3.058 3.058 0 0 0 1.564-.455 6.16 6.16 0 0 0 1.541-1.364z" fill="#646668" opacity=".998" transform="translate(381.314 105.753)"/><path d="m-322.52-46.3a8.7 8.7 0 0 1 .476-2.928 6.274 6.274 0 0 1 1.579-2.416 7.455 7.455 0 0 1 2.5-1.619 8.686 8.686 0 0 1 3.188-.546 9.191 9.191 0 0 1 3.008.466 6.508 6.508 0 0 1 2.221 1.233 6.29 6.29 0 0 1 1.368 1.679 6.392 6.392 0 0 1 .607 1.6 8.3 8.3 0 0 1 .226 1.975 7.586 7.586 0 0 1 -2.271 5.625 7.813 7.813 0 0 1 -5.73 2.246 8.3 8.3 0 0 1 -2.938-.511 5.98 5.98 0 0 1 -2.306-1.519 6.693 6.693 0 0 1 -1.434-2.446 8.758 8.758 0 0 1 -.494-2.839zm2.085-.832a10.156 10.156 0 0 0 .19 1.935 9.083 9.083 0 0 0 .481 1.694 6.272 6.272 0 0 0 1.258 2.02 4.928 4.928 0 0 0 1.734 1.2 5.623 5.623 0 0 0 2.121.386 4.981 4.981 0 0 0 2.807-.787 4.724 4.724 0 0 0 1.78-2.216 8.62 8.62 0 0 0 .587-3.294 9.78 9.78 0 0 0 -.421-2.938 6.147 6.147 0 0 0 -.692-1.489 5.115 5.115 0 0 0 -1.028-1.163 5.082 5.082 0 0 0 -1.549-.837 6.056 6.056 0 0 0 -2.055-.341 5.39 5.39 0 0 0 -2.8.712 4.438 4.438 0 0 0 -1.81 2.06 7.365 7.365 0 0 0 -.603 3.059zm15.577-5.745v-.642l1.193.03 1.925.05q.571 0 1.775-.04 1.564-.06 1.815-.06a8.323 8.323 0 0 1 2.792.341 2.719 2.719 0 0 1 1.358 1.109 3.081 3.081 0 0 1 .481 1.669 3.482 3.482 0 0 1 -.451 1.674 3.775 3.775 0 0 1 -1.308 1.384 6.822 6.822 0 0 1 -2.231.852q.251.351 1.183 1.564l2.527 3.329q1.083 1.394 1.263 1.554a.611.611 0 0 0 .18.1 2.656 2.656 0 0 0 .662.05v.642q-.762-.06-1.333-.06-.592 0-1.454.06-.652-.752-2.186-2.938-.852-1.213-1.5-2.025-1.053-1.343-2.005-2.436l.1-.3q.521.03.792.03a3.968 3.968 0 0 0 2.767-.862 2.938 2.938 0 0 0 .942-2.276 2.5 2.5 0 0 0 -.812-1.96 3.589 3.589 0 0 0 -2.456-.727 6.739 6.739 0 0 0 -2.025.311q-.04.541-.06 1.013-.01.14-.07 2.918v4.452q0 1.364.04 2.657a3.142 3.142 0 0 0 .135 1.133.673.673 0 0 0 .376.266 7.161 7.161 0 0 0 1.444.105v.642q-1.424-.08-2.617-.08-.962 0-3.238.08v-.642a7.16 7.16 0 0 0 1.444-.105.663.663 0 0 0 .361-.236 2.554 2.554 0 0 0 .15-.973q.01-.211.04-2.847v-4.642q0-1.364-.03-2.667a3.154 3.154 0 0 0 -.145-1.128.682.682 0 0 0 -.371-.261 7.143 7.143 0 0 0 -1.453-.107zm15.176 13.605v-.682a5.3 5.3 0 0 0 .988-.065.87.87 0 0 0 .361-.211 3.228 3.228 0 0 0 .476-.807q.181-.371 1.3-2.817l2.507-5.655q.411-.932 1.755-4.151h.652l4.281 10.056q1.043 2.446 1.384 3.068a1.038 1.038 0 0 0 .416.461 2.957 2.957 0 0 0 1.018.12v.682q-1.564-.1-2.186-.1l-3.228.1v-.682a11.094 11.094 0 0 0 1.364-.07.6.6 0 0 0 .326-.145.341.341 0 0 0 .085-.236 1.63 1.63 0 0 0 -.14-.571l-1.233-3.068h-5.805l-1.093 2.577a3.023 3.023 0 0 0 -.291 1.013.334.334 0 0 0 .08.231.6.6 0 0 0 .341.18 7.506 7.506 0 0 0 1.3.09v.682q-1.694-.09-2.537-.09-.968.001-2.121.091zm4.662-5.625h5.063l-2.507-6.046zm13.792 5.625v-.521a3.224 3.224 0 0 0 .792-.461.48.48 0 0 0 .14-.231 5.526 5.526 0 0 0 .12-1.2q.04-1.374.04-1.634v-5.394q0-1.364-.03-2.667a3.155 3.155 0 0 0 -.145-1.128.681.681 0 0 0 -.371-.261 7.143 7.143 0 0 0 -1.449-.105v-.642q2.446.08 3.028.08.642 0 2.877-.08v.642a7.143 7.143 0 0 0 -1.449.105.66.66 0 0 0 -.356.236 2.554 2.554 0 0 0 -.15.973q-.01.2-.04 2.847v6.738q0 1.053.04 1.714 1.143.07 2.266.07a14.81 14.81 0 0 0 3.96-.361 4.647 4.647 0 0 0 .231-.692l.4-1.664h.672q-.221 1.494-.431 3.509a6.373 6.373 0 0 1 -.652.1q-.521.03-1.6.03l-5.935-.08q-.964-.002-1.957.078zm19.424-.491a23.22 23.22 0 0 0 .191-3.118h.682a7.482 7.482 0 0 0 .165 1.729 1.506 1.506 0 0 0 .556.566 4.579 4.579 0 0 0 1.183.536 4.728 4.728 0 0 0 1.434.236 3.822 3.822 0 0 0 1.865-.466 2.929 2.929 0 0 0 1.243-1.223 3.478 3.478 0 0 0 .391-1.619 3.03 3.03 0 0 0 -.2-1.143 1.773 1.773 0 0 0 -.6-.777 2.483 2.483 0 0 0 -.993-.416q-.371-.06-1.484-.2t-1.895-.311a4.242 4.242 0 0 1 -1.534-.752 3.154 3.154 0 0 1 -.8-1.133 3.749 3.749 0 0 1 -.306-1.514 4.327 4.327 0 0 1 .617-2.231 4.124 4.124 0 0 1 1.825-1.629 5.965 5.965 0 0 1 2.622-.582 8.557 8.557 0 0 1 1.86.226 8.335 8.335 0 0 1 1.88.657 11.026 11.026 0 0 0 -.2 1.178q-.06.546-.09 1.609h-.682a11.22 11.22 0 0 0 -.09-1.684 2.552 2.552 0 0 0 -.682-.652 4.333 4.333 0 0 0 -2.156-.582 3.1 3.1 0 0 0 -2.321.887 3.153 3.153 0 0 0 -.867 2.3 2.366 2.366 0 0 0 .311 1.318 2.127 2.127 0 0 0 1.113.747 10.2 10.2 0 0 0 1.8.356q1.253.165 2.256.356a3.862 3.862 0 0 1 1.394.667 2.93 2.93 0 0 1 .742 1.013 3.459 3.459 0 0 1 .291 1.469 4.54 4.54 0 0 1 -1.654 3.479 6.169 6.169 0 0 1 -4.263 1.486 8.147 8.147 0 0 1 -3.6-.782zm11.988-13.114v-.642q1.634.08 3.038.08 1.424 0 2.827-.08v.642a7.16 7.16 0 0 0 -1.444.105.609.609 0 0 0 -.351.236 2.363 2.363 0 0 0 -.16.973q-.01.2-.04 2.847v3.71a9.237 9.237 0 0 0 .276 2.842 2.619 2.619 0 0 0 .877 1.138 3.648 3.648 0 0 0 1.243.546 6.865 6.865 0 0 0 1.745.206 6.619 6.619 0 0 0 2-.276 3.526 3.526 0 0 0 1.308-.672 2.616 2.616 0 0 0 .652-.887 4.76 4.76 0 0 0 .311-1.349 20.3 20.3 0 0 0 .1-2.171v-3.088q0-1.364-.04-2.667a3.091 3.091 0 0 0 -.135-1.128.683.683 0 0 0 -.376-.261 7.161 7.161 0 0 0 -1.444-.105v-.642q1.654.08 2.416.08.692 0 2.5-.08v.642a7.143 7.143 0 0 0 -1.449.105.66.66 0 0 0 -.356.236 2.553 2.553 0 0 0 -.15.973q-.01.2-.04 2.847v3.359a11.792 11.792 0 0 1 -.346 3.459 3.908 3.908 0 0 1 -1.268 1.735 4.949 4.949 0 0 1 -1.78.872 8.763 8.763 0 0 1 -2.411.311 8.741 8.741 0 0 1 -2.687-.365 4.216 4.216 0 0 1 -1.724-.963 3.35 3.35 0 0 1 -.812-1.218 9.479 9.479 0 0 1 -.281-2.757v-4.432q0-1.364-.03-2.667a3.153 3.153 0 0 0 -.153-1.127.681.681 0 0 0 -.371-.261 7.142 7.142 0 0 0 -1.445-.105zm17.683 0v-.642l1.193.03 1.925.05q.571 0 1.775-.04 1.564-.06 1.815-.06a8.323 8.323 0 0 1 2.792.341 2.719 2.719 0 0 1 1.359 1.108 3.081 3.081 0 0 1 .481 1.669 3.482 3.482 0 0 1 -.451 1.674 3.776 3.776 0 0 1 -1.308 1.384 6.821 6.821 0 0 1 -2.231.852q.251.351 1.183 1.564l2.527 3.329q1.083 1.394 1.263 1.554a.612.612 0 0 0 .18.1 2.657 2.657 0 0 0 .662.05v.642q-.762-.06-1.333-.06-.592 0-1.454.06-.652-.752-2.186-2.938-.852-1.213-1.5-2.025-1.053-1.343-2.005-2.436l.1-.3q.521.03.792.03a3.968 3.968 0 0 0 2.767-.862 2.938 2.938 0 0 0 .942-2.276 2.5 2.5 0 0 0 -.812-1.96 3.589 3.589 0 0 0 -2.456-.727 6.739 6.739 0 0 0 -2.025.311q-.04.541-.06 1.013-.01.14-.07 2.918v4.452q0 1.364.04 2.657a3.143 3.143 0 0 0 .135 1.133.673.673 0 0 0 .376.266 7.16 7.16 0 0 0 1.444.105v.642q-1.424-.08-2.617-.08-.962 0-3.238.08v-.642a7.16 7.16 0 0 0 1.444-.105.663.663 0 0 0 .361-.236 2.555 2.555 0 0 0 .15-.973q.01-.211.04-2.847v-4.642q0-1.364-.03-2.667a3.154 3.154 0 0 0 -.145-1.128.681.681 0 0 0 -.371-.261 7.143 7.143 0 0 0 -1.454-.106zm29.1 12.823a17.713 17.713 0 0 1 -2.5.742 17.169 17.169 0 0 1 -3.248.331 9.05 9.05 0 0 1 -4.121-.907 6.655 6.655 0 0 1 -2.787-2.542 7.349 7.349 0 0 1 -.983-3.86 7.172 7.172 0 0 1 .707-3.324 7.165 7.165 0 0 1 1.765-2.251 7.923 7.923 0 0 1 2.11-1.3 10.85 10.85 0 0 1 3.99-.642 12.524 12.524 0 0 1 2.341.256q1.228.246 2.772.677a8.279 8.279 0 0 0 -.231 1q-.08.491-.211 2.015h-.612l-.05-1.143q-.01-.261-.02-.421a1.182 1.182 0 0 0 -.13-.411 2.35 2.35 0 0 0 -.862-.652 10.711 10.711 0 0 0 -1.689-.521 8.4 8.4 0 0 0 -1.589-.13 6.437 6.437 0 0 0 -3.3.812 5.191 5.191 0 0 0 -2.103 2.325 7.632 7.632 0 0 0 -.717 3.309 7.469 7.469 0 0 0 .837 3.554 6 6 0 0 0 2.246 2.416 6.306 6.306 0 0 0 3.284.837 8.449 8.449 0 0 0 1.709-.17 5.311 5.311 0 0 0 1.4-.471 6.475 6.475 0 0 0 .09-1.283v-1.112a3.1 3.1 0 0 0 -.09-1.033q-.09-.15-.486-.226a15.328 15.328 0 0 0 -1.82-.115v-.612l3.128.07q.912 0 1.865-.07l.06.481-.752.441a17.83 17.83 0 0 0 -.12 1.975 17.3 17.3 0 0 0 .119 1.956zm3.666.782v-.628a4.114 4.114 0 0 0 1.384-.16.374.374 0 0 0 .2-.19 3.542 3.542 0 0 0 .14-1.053q.06-1.323.06-2.286v-5.123q0-1.364-.03-2.667a3.154 3.154 0 0 0 -.145-1.128.681.681 0 0 0 -.371-.261 7.142 7.142 0 0 0 -1.449-.105v-.642l2.857.06 3.028-.05q2.176-.03 3.158-.03a15.131 15.131 0 0 1 1.875.11 7.872 7.872 0 0 0 -.221.993q-.02.09-.18 2.085h-.632a10.747 10.747 0 0 0 -.13-1.865 4.55 4.55 0 0 0 -1.213-.311 18.088 18.088 0 0 0 -2.246-.14q-.241 0-1.073.04t-1.193.07q-.04 1.113-.06 2.085l-.04 3.389q1.173.06 2.156.06a15.99 15.99 0 0 0 2.035-.11.608.608 0 0 0 .411-.16 2.392 2.392 0 0 0 .16-.822l.06-.7h.6v.19l-.05 2.085.05 2.336h-.7l-.03-.682a2.29 2.29 0 0 0 -.135-.922.655.655 0 0 0 -.436-.251 13.039 13.039 0 0 0 -2.216-.12q-.672 0-1.9.05-.05 1-.05 2.978 0 1.855.05 2.817 1.444.11 3.238.11a14.1 14.1 0 0 0 1.815-.08 4.246 4.246 0 0 0 1-.271 6.243 6.243 0 0 0 .241-.842q.221-.892.291-1.343h.662a27.219 27.219 0 0 0 -.261 3.359 14.307 14.307 0 0 1 -2.1.13l-5.986-.08q-.126-.004-2.622.076zm13.842-13.605v-.642l1.193.03 1.925.05q.571 0 1.775-.04 1.564-.06 1.815-.06a8.323 8.323 0 0 1 2.792.341 2.719 2.719 0 0 1 1.359 1.108 3.081 3.081 0 0 1 .481 1.669 3.482 3.482 0 0 1 -.451 1.674 3.775 3.775 0 0 1 -1.308 1.384 6.821 6.821 0 0 1 -2.231.852q.251.351 1.183 1.564l2.527 3.329q1.083 1.394 1.263 1.554a.611.611 0 0 0 .18.1 2.657 2.657 0 0 0 .662.05v.642q-.762-.06-1.333-.06-.592 0-1.454.06-.652-.752-2.186-2.938-.852-1.213-1.5-2.025-1.053-1.343-2.005-2.436l.1-.3q.521.03.792.03a3.968 3.968 0 0 0 2.767-.862 2.938 2.938 0 0 0 .942-2.276 2.5 2.5 0 0 0 -.812-1.96 3.589 3.589 0 0 0 -2.456-.727 6.739 6.739 0 0 0 -2.025.311q-.04.541-.06 1.013-.01.14-.07 2.918v4.452q0 1.364.04 2.657a3.143 3.143 0 0 0 .135 1.133.673.673 0 0 0 .376.266 7.161 7.161 0 0 0 1.444.105v.642q-1.424-.08-2.617-.08-.962 0-3.238.08v-.642a7.16 7.16 0 0 0 1.444-.105.662.662 0 0 0 .361-.236 2.553 2.553 0 0 0 .15-.973q.01-.211.04-2.847v-4.642q0-1.364-.03-2.667a3.154 3.154 0 0 0 -.145-1.128.681.681 0 0 0 -.371-.261 7.143 7.143 0 0 0 -1.452-.106zm14.3.241v-.612l2.416-.471a1.909 1.909 0 0 1 .551.266 6.152 6.152 0 0 1 .632.767 25.4 25.4 0 0 1 1.644 2.6q.932 1.644 1.985 3.76 1.063-1.634 2.176-3.549l2.136-3.639h1.534v.271q-.551.612-2.025 2.657-.852 1.183-2.216 3.439a14.557 14.557 0 0 0 -.962 1.709 1.812 1.812 0 0 0 -.11.6v.772q0 1.364.03 2.657a3.207 3.207 0 0 0 .145 1.133.671.671 0 0 0 .371.266 7.143 7.143 0 0 0 1.449.105v.642q-1.634-.08-2.827-.08-1.143 0-3.018.08v-.642a7.16 7.16 0 0 0 1.444-.105.609.609 0 0 0 .351-.236 2.364 2.364 0 0 0 .16-.973q.01-.211.04-2.847v-1.173q-.211-.451-.411-.812-.14-.251-1.023-1.724l-.662-1.083q-.782-1.283-1.163-1.825a10.141 10.141 0 0 0 -1.213-1.494 1.52 1.52 0 0 0 -.546-.351 2.884 2.884 0 0 0 -.882-.108z" fill="#646668" transform="translate(435.607 110.028)"/><g clip-path="url(#d)" transform="translate(18.522 42.24)"><path d="m0 0h60.173v51.761h-60.173z" fill="url(#a)"/></g><g clip-path="url(#e)" transform="translate(12.999 6.001)"><path d="m0 0h61.416v40.408h-61.416z" fill="url(#b)"/></g><g clip-path="url(#f)" transform="translate(72.203 7.097)"><path d="m0 0h28.959v67.624h-28.959z" fill="url(#c)"/></g></svg>